<svg id="SvgjsSvg1000" xmlns="http://www.w3.org/2000/svg" version="1.1" xmlns:xlink="http://www.w3.org/1999/xlink" xmlns:svgjs="http://svgjs.com/svgjs" width="867.25" height="662" fill="#FFF"><defs id="SvgjsDefs1001"><pattern id="SvgjsPattern1009" x="0" y="0" width="59" height="76" patternUnits="userSpaceOnUse"><image id="SvgjsImage1010" xlink:href="https://wps.processon.com/assets/images/designer/network_azure/SQLAzure.svg" width="59" height="76" preserveAspectRatio="none" crossOrigin="anonymous" x="0" y="0"></image></pattern><pattern id="SvgjsPattern1019" x="0" y="0" width="59" height="81" patternUnits="userSpaceOnUse"><image id="SvgjsImage1020" xlink:href="https://wps.processon.com/assets/images/designer/network_azure/SQLDataSync.svg" width="59" height="81" preserveAspectRatio="none" crossOrigin="anonymous" x="0" y="0"></image></pattern><pattern id="SvgjsPattern1035" x="0" y="0" width="76" height="76" patternUnits="userSpaceOnUse"><image id="SvgjsImage1036" xlink:href="https://wps.processon.com/assets/images/designer/network_azure/WebSites.svg" width="76" height="76" preserveAspectRatio="none" crossOrigin="anonymous" x="0" y="0"></image></pattern><pattern id="SvgjsPattern1045" x="0" y="0" width="250" height="250" patternUnits="userSpaceOnUse"><image id="SvgjsImage1046" xlink:href="https://wps.processon.com/assets/images/designer/network_azure/ServerRack.svg" width="250" height="250" preserveAspectRatio="none" crossOrigin="anonymous" x="0" y="0"></image></pattern><pattern id="SvgjsPattern1051" x="0" y="0" width="76" height="76" patternUnits="userSpaceOnUse"><image id="SvgjsImage1052" xlink:href="https://wps.processon.com/assets/images/designer/network_azure/GitHub_CodeSource.svg" width="76" height="76" preserveAspectRatio="none" crossOrigin="anonymous" x="0" y="0"></image></pattern><marker id="SvgjsMarker1061" markerWidth="14" markerHeight="10" refX="10" refY="5" viewBox="0 0 14 10" orient="auto" markerUnits="userSpaceOnUse" stroke-dasharray="0,0"><path id="SvgjsPath1062" d="M0 0L14 5L0 10L0 0 " fill="#323232" stroke="#323232" stroke-width="1"></path></marker><marker id="SvgjsMarker1065" markerWidth="14" markerHeight="10" refX="10" refY="5" viewBox="0 0 14 10" orient="auto" markerUnits="userSpaceOnUse" stroke-dasharray="0,0"><path id="SvgjsPath1066" d="M0 0L14 5L0 10L0 0 " fill="#323232" stroke="#323232" stroke-width="1"></path></marker><marker id="SvgjsMarker1069" markerWidth="14" markerHeight="10" refX="4" refY="5" viewBox="0 0 14 10" orient="auto" markerUnits="userSpaceOnUse" stroke-dasharray="0,0"><path id="SvgjsPath1070" d="M14 0L0 5L14 10L14 0 " fill="#323232" stroke="#323232" stroke-width="1"></path></marker><marker id="SvgjsMarker1071" markerWidth="14" markerHeight="10" refX="10" refY="5" viewBox="0 0 14 10" orient="auto" markerUnits="userSpaceOnUse" stroke-dasharray="0,0"><path id="SvgjsPath1072" d="M0 0L14 5L0 10L0 0 " fill="#323232" stroke="#323232" stroke-width="1"></path></marker><marker id="SvgjsMarker1075" markerWidth="14" markerHeight="10" refX="10" refY="5" viewBox="0 0 14 10" orient="auto" markerUnits="userSpaceOnUse" stroke-dasharray="0,0"><path id="SvgjsPath1076" d="M0 0L14 5L0 10L0 0 " fill="#323232" stroke="#323232" stroke-width="1"></path></marker><marker id="SvgjsMarker1079" markerWidth="14" markerHeight="10" refX="10" refY="5" viewBox="0 0 14 10" orient="auto" markerUnits="userSpaceOnUse" stroke-dasharray="0,0"><path id="SvgjsPath1080" d="M0 0L14 5L0 10L0 0 " fill="#323232" stroke="#323232" stroke-width="1"></path></marker><pattern id="SvgjsPattern1083" x="0" y="0" width="76" height="76" patternUnits="userSpaceOnUse"><image id="SvgjsImage1084" xlink:href="https://wps.processon.com/assets/images/designer/network_azure/PowerShellFile.svg" width="76" height="76" preserveAspectRatio="none" crossOrigin="anonymous" x="0" y="0"></image></pattern><marker id="SvgjsMarker1091" markerWidth="14" markerHeight="10" refX="4" refY="5" viewBox="0 0 14 10" orient="auto" markerUnits="userSpaceOnUse" stroke-dasharray="0,0"><path id="SvgjsPath1092" d="M14 0L0 5L14 10L14 0 " fill="#323232" stroke="#323232" stroke-width="1"></path></marker><marker id="SvgjsMarker1093" markerWidth="14" markerHeight="10" refX="10" refY="5" viewBox="0 0 14 10" orient="auto" markerUnits="userSpaceOnUse" stroke-dasharray="0,0"><path id="SvgjsPath1094" d="M0 0L14 5L0 10L0 0 " fill="#323232" stroke="#323232" stroke-width="1"></path></marker><pattern id="SvgjsPattern1097" x="0" y="0" width="61" height="76" patternUnits="userSpaceOnUse"><image id="SvgjsImage1098" xlink:href="https://wps.processon.com/assets/images/designer/network_azure/Scheduler.svg" width="61" height="76" preserveAspectRatio="none" crossOrigin="anonymous" x="0" y="0"></image></pattern><marker id="SvgjsMarker1107" markerWidth="14" markerHeight="10" refX="10" refY="5" viewBox="0 0 14 10" orient="auto" markerUnits="userSpaceOnUse" stroke-dasharray="0,0"><path id="SvgjsPath1108" d="M0 0L14 5L0 10L0 0 " fill="#323232" stroke="#323232" stroke-width="1"></path></marker><marker id="SvgjsMarker1111" markerWidth="14" markerHeight="10" refX="10" refY="5" viewBox="0 0 14 10" orient="auto" markerUnits="userSpaceOnUse" stroke-dasharray="0,0"><path id="SvgjsPath1112" d="M0 0L14 5L0 10L0 0 " fill="#323232" stroke="#323232" stroke-width="1"></path></marker><pattern id="SvgjsPattern1115" x="0" y="0" width="50" height="50" patternUnits="userSpaceOnUse"><image id="SvgjsImage1116" xlink:href="https://wps.processon.com/assets/images/designer/network_aliyun/LargeScaleCalculation/DPC.svg" width="50" height="50" preserveAspectRatio="none" crossOrigin="anonymous" x="0" y="0"></image></pattern><pattern id="SvgjsPattern1121" x="0" y="0" width="50" height="50" patternUnits="userSpaceOnUse"><image id="SvgjsImage1122" xlink:href="https://wps.processon.com/assets/images/designer/network_aliyun/LargeScaleCalculation/ODPS.svg" width="50" height="50" preserveAspectRatio="none" crossOrigin="anonymous" x="0" y="0"></image></pattern><pattern id="SvgjsPattern1135" x="0" y="0" width="50" height="50" patternUnits="userSpaceOnUse"><image id="SvgjsImage1136" xlink:href="https://wps.processon.com/assets/images/designer/network_aliyun/ManagementandMonitoring/CloudMonitoring.svg" width="50" height="50" preserveAspectRatio="none" crossOrigin="anonymous" x="0" y="0"></image></pattern><pattern id="SvgjsPattern1149" x="0" y="0" width="50" height="50" patternUnits="userSpaceOnUse"><image id="SvgjsImage1150" xlink:href="https://wps.processon.com/assets/images/designer/network_aliyun/ApplicationServices/SLS.svg" width="50" height="50" preserveAspectRatio="none" crossOrigin="anonymous" x="0" y="0"></image></pattern><marker id="SvgjsMarker1171" markerWidth="14" markerHeight="10" refX="10" refY="5" viewBox="0 0 14 10" orient="auto" markerUnits="userSpaceOnUse" stroke-dasharray="0,0"><path id="SvgjsPath1172" d="M0 0L14 5L0 10L0 0 " fill="#323232" stroke="#323232" stroke-width="1"></path></marker><marker id="SvgjsMarker1175" markerWidth="14" markerHeight="10" refX="10" refY="5" viewBox="0 0 14 10" orient="auto" markerUnits="userSpaceOnUse" stroke-dasharray="0,0"><path id="SvgjsPath1176" d="M0 0L14 5L0 10L0 0 " fill="#323232" stroke="#323232" stroke-width="1"></path></marker><marker id="SvgjsMarker1179" markerWidth="14" markerHeight="10" refX="10" refY="5" viewBox="0 0 14 10" orient="auto" markerUnits="userSpaceOnUse" stroke-dasharray="0,0"><path id="SvgjsPath1180" d="M0 0L14 5L0 10L0 0 " fill="#323232" stroke="#323232" stroke-width="1"></path></marker><marker id="SvgjsMarker1183" markerWidth="14" markerHeight="10" refX="10" refY="5" viewBox="0 0 14 10" orient="auto" markerUnits="userSpaceOnUse" stroke-dasharray="0,0"><path id="SvgjsPath1184" d="M0 0L14 5L0 10L0 0 " fill="#323232" stroke="#323232" stroke-width="1"></path></marker><pattern id="SvgjsPattern1187" x="0" y="0" width="75" height="75" patternUnits="userSpaceOnUse"><image id="SvgjsImage1188" xlink:href="https://wps.processon.com/assets/images/designer/network_azure/User.svg" width="75" height="75" preserveAspectRatio="none" crossOrigin="anonymous" x="0" y="0"></image></pattern><marker id="SvgjsMarker1197" markerWidth="14" markerHeight="10" refX="10" refY="5" viewBox="0 0 14 10" orient="auto" markerUnits="userSpaceOnUse" stroke-dasharray="0,0"><path id="SvgjsPath1198" d="M0 0L14 5L0 10L0 0 " fill="#323232" stroke="#323232" stroke-width="1"></path></marker><pattern id="SvgjsPattern1201" x="0" y="0" width="75" height="75" patternUnits="userSpaceOnUse"><image id="SvgjsImage1202" xlink:href="https://wps.processon.com/assets/images/designer/network_azure/User.svg" width="75" height="75" preserveAspectRatio="none" crossOrigin="anonymous" x="0" y="0"></image></pattern><marker id="SvgjsMarker1209" markerWidth="14" markerHeight="10" refX="10" refY="5" viewBox="0 0 14 10" orient="auto" markerUnits="userSpaceOnUse" stroke-dasharray="0,0"><path id="SvgjsPath1210" d="M0 0L14 5L0 10L0 0 " fill="#323232" stroke="#323232" stroke-width="1"></path></marker><pattern id="SvgjsPattern1219" x="0" y="0" width="75" height="75" patternUnits="userSpaceOnUse"><image id="SvgjsImage1220" xlink:href="https://wps.processon.com/assets/images/designer/network_azure/User.svg" width="75" height="75" preserveAspectRatio="none" crossOrigin="anonymous" x="0" y="0"></image></pattern><marker id="SvgjsMarker1227" markerWidth="14" markerHeight="10" refX="10" refY="5" viewBox="0 0 14 10" orient="auto" markerUnits="userSpaceOnUse" stroke-dasharray="0,0"><path id="SvgjsPath1228" d="M0 0L14 5L0 10L0 0 " fill="#323232" stroke="#323232" stroke-width="1"></path></marker><pattern id="SvgjsPattern1231" x="0" y="0" width="50" height="50" patternUnits="userSpaceOnUse"><image id="SvgjsImage1232" xlink:href="https://wps.processon.com/assets/images/designer/network_azure/ScriptFIle.svg" width="50" height="50" preserveAspectRatio="none" crossOrigin="anonymous" x="0" y="0"></image></pattern><marker id="SvgjsMarker1239" markerWidth="14" markerHeight="10" refX="4" refY="5" viewBox="0 0 14 10" orient="auto" markerUnits="userSpaceOnUse" stroke-dasharray="0,0"><path id="SvgjsPath1240" d="M14 0L0 5L14 10L14 0 " fill="#323232" stroke="#323232" stroke-width="1"></path></marker><marker id="SvgjsMarker1241" markerWidth="14" markerHeight="10" refX="10" refY="5" viewBox="0 0 14 10" orient="auto" markerUnits="userSpaceOnUse" stroke-dasharray="0,0"><path id="SvgjsPath1242" d="M0 0L14 5L0 10L0 0 " fill="#323232" stroke="#323232" stroke-width="1"></path></marker><marker id="SvgjsMarker1249" markerWidth="14" markerHeight="10" refX="4" refY="5" viewBox="0 0 14 10" orient="auto" markerUnits="userSpaceOnUse" stroke-dasharray="0,0"><path id="SvgjsPath1250" d="M14 0L0 5L14 10L14 0 " fill="#323232" stroke="#323232" stroke-width="1"></path></marker><marker id="SvgjsMarker1251" markerWidth="14" markerHeight="10" refX="10" refY="5" viewBox="0 0 14 10" orient="auto" markerUnits="userSpaceOnUse" stroke-dasharray="0,0"><path id="SvgjsPath1252" d="M0 0L14 5L0 10L0 0 " fill="#323232" stroke="#323232" stroke-width="1"></path></marker><pattern id="SvgjsPattern1255" x="0" y="0" width="76" height="57" patternUnits="userSpaceOnUse"><image id="SvgjsImage1256" xlink:href="https://wps.processon.com/assets/images/designer/network_azure/ManagementService.svg" width="76" height="57" preserveAspectRatio="none" crossOrigin="anonymous" x="0" y="0"></image></pattern><marker id="SvgjsMarker1263" markerWidth="14" markerHeight="10" refX="10" refY="5" viewBox="0 0 14 10" orient="auto" markerUnits="userSpaceOnUse" stroke-dasharray="0,0"><path id="SvgjsPath1264" d="M0 0L14 5L0 10L0 0 " fill="#323232" stroke="#323232" stroke-width="1"></path></marker><marker id="SvgjsMarker1267" markerWidth="14" markerHeight="10" refX="10" refY="5" viewBox="0 0 14 10" orient="auto" markerUnits="userSpaceOnUse" stroke-dasharray="0,0"><path id="SvgjsPath1268" d="M0 0L14 5L0 10L0 0 " fill="#323232" stroke="#323232" stroke-width="1"></path></marker><marker id="SvgjsMarker1271" markerWidth="14" markerHeight="10" refX="10" refY="5" viewBox="0 0 14 10" orient="auto" markerUnits="userSpaceOnUse" stroke-dasharray="0,0"><path id="SvgjsPath1272" d="M0 0L14 5L0 10L0 0 " fill="#323232" stroke="#323232" stroke-width="1"></path></marker><pattern id="SvgjsPattern1275" x="0" y="0" width="76" height="24" patternUnits="userSpaceOnUse"><image id="SvgjsImage1276" xlink:href="https://wps.processon.com/assets/images/designer/network_azure/Server.svg" width="76" height="24" preserveAspectRatio="none" crossOrigin="anonymous" x="0" y="0"></image></pattern><pattern id="SvgjsPattern1283" x="0" y="0" width="50" height="50" patternUnits="userSpaceOnUse"><image id="SvgjsImage1284" xlink:href="https://wps.processon.com/assets/images/designer/network_azure/RecoveryServices.svg" width="50" height="50" preserveAspectRatio="none" crossOrigin="anonymous" x="0" y="0"></image></pattern><marker id="SvgjsMarker1289" markerWidth="14" markerHeight="10" refX="4" refY="5" viewBox="0 0 14 10" orient="auto" markerUnits="userSpaceOnUse" stroke-dasharray="0,0"><path id="SvgjsPath1290" d="M14 0L0 5L14 10L14 0 " fill="#323232" stroke="#323232" stroke-width="1"></path></marker><marker id="SvgjsMarker1291" markerWidth="14" markerHeight="10" refX="10" refY="5" viewBox="0 0 14 10" orient="auto" markerUnits="userSpaceOnUse" stroke-dasharray="0,0"><path id="SvgjsPath1292" d="M0 0L14 5L0 10L0 0 " fill="#323232" stroke="#323232" stroke-width="1"></path></marker><pattern id="SvgjsPattern1295" x="0" y="0" width="76" height="68" patternUnits="userSpaceOnUse"><image id="SvgjsImage1296" xlink:href="https://wps.processon.com/assets/images/designer/network_azure/VirtualMachines.svg" width="76" height="68" preserveAspectRatio="none" crossOrigin="anonymous" x="0" y="0"></image></pattern><marker id="SvgjsMarker1303" markerWidth="14" markerHeight="10" refX="4" refY="5" viewBox="0 0 14 10" orient="auto" markerUnits="userSpaceOnUse" stroke-dasharray="0,0"><path id="SvgjsPath1304" d="M14 0L0 5L14 10L14 0 " fill="#323232" stroke="#323232" stroke-width="1"></path></marker><marker id="SvgjsMarker1305" markerWidth="14" markerHeight="10" refX="10" refY="5" viewBox="0 0 14 10" orient="auto" markerUnits="userSpaceOnUse" stroke-dasharray="0,0"><path id="SvgjsPath1306" d="M0 0L14 5L0 10L0 0 " fill="#323232" stroke="#323232" stroke-width="1"></path></marker></defs><g id="SvgjsG1007" transform="translate(488,221)"><path id="SvgjsPath1008" d="M0 0L59 0L59 76L0 76Z " stroke="none" fill="url(#SvgjsPattern1009)" opacity="1"></path><g id="SvgjsG1011"><text id="SvgjsText1012" font-family="微软雅黑" text-anchor="middle" font-size="13px" width="99px" fill="#323232" font-weight="400" align="middle" lineHeight="125%" font-style="" opacity="1" y="72.375" transform="rotate(0)"><tspan id="SvgjsTspan1013" dy="16" x="29.5"><tspan id="SvgjsTspan1014" style="text-decoration:;">NOSQL </tspan></tspan><tspan id="SvgjsTspan1015" dy="16" x="29.5"><tspan id="SvgjsTspan1016" style="text-decoration:;">Database</tspan></tspan></text></g></g><g id="SvgjsG1017" transform="translate(759,218)"><path id="SvgjsPath1018" d="M0 0L59 0L59 81L0 81Z " stroke="none" fill="url(#SvgjsPattern1019)" opacity="1"></path><g id="SvgjsG1021"><text id="SvgjsText1022" font-family="微软雅黑" text-anchor="middle" font-size="13px" width="99px" fill="#323232" font-weight="400" align="middle" lineHeight="125%" font-style="" opacity="1" y="53.375" transform="rotate(0)"><tspan id="SvgjsTspan1023" dy="16" x="29.5"><tspan id="SvgjsTspan1024" style="text-decoration:;"> </tspan></tspan><tspan id="SvgjsTspan1025" dy="16" x="29.5"><tspan id="SvgjsTspan1026" style="text-decoration:;"> </tspan></tspan><tspan id="SvgjsTspan1027" dy="16" x="29.5"><tspan id="SvgjsTspan1028" style="text-decoration:;">NCBI Orangelle </tspan></tspan><tspan id="SvgjsTspan1029" dy="16" x="29.5"><tspan id="SvgjsTspan1030" style="text-decoration:;">Genome </tspan></tspan><tspan id="SvgjsTspan1031" dy="16" x="29.5"><tspan id="SvgjsTspan1032" style="text-decoration:;">Database</tspan></tspan></text></g></g><g id="SvgjsG1033" transform="translate(479.5,41)"><path id="SvgjsPath1034" d="M0 0L76 0L76 76L0 76Z " stroke="none" fill="url(#SvgjsPattern1035)" opacity="1"></path><g id="SvgjsG1037"><text id="SvgjsText1038" font-family="微软雅黑" text-anchor="middle" font-size="13px" width="116px" fill="#323232" font-weight="400" align="middle" lineHeight="125%" font-style="" opacity="1" y="72.375" transform="rotate(0)"><tspan id="SvgjsTspan1039" dy="16" x="38"><tspan id="SvgjsTspan1040" style="text-decoration:;">Database Web </tspan></tspan><tspan id="SvgjsTspan1041" dy="16" x="38"><tspan id="SvgjsTspan1042" style="text-decoration:;">Interface</tspan></tspan></text></g></g><g id="SvgjsG1043" transform="translate(169,133.5)"><path id="SvgjsPath1044" d="M0 0L250 0L250 250L0 250Z " stroke="none" fill="url(#SvgjsPattern1045)" opacity="1"></path><g id="SvgjsG1047"><text id="SvgjsText1048" font-family="微软雅黑" text-anchor="middle" font-size="13px" width="290px" fill="#323232" font-weight="400" align="middle" lineHeight="125%" font-style="" opacity="1" y="254.375" transform="rotate(0)"></text></g></g><g id="SvgjsG1049" transform="translate(25,221)"><path id="SvgjsPath1050" d="M0 0L76 0L76 76L0 76Z " stroke="none" fill="url(#SvgjsPattern1051)" opacity="1"></path><g id="SvgjsG1053"><text id="SvgjsText1054" font-family="微软雅黑" text-anchor="middle" font-size="13px" width="116px" fill="#323232" font-weight="400" align="middle" lineHeight="125%" font-style="" opacity="1" y="72.375" transform="rotate(0)"><tspan id="SvgjsTspan1055" dy="16" x="38"><tspan id="SvgjsTspan1056" style="text-decoration:;">Source Code </tspan></tspan><tspan id="SvgjsTspan1057" dy="16" x="38"><tspan id="SvgjsTspan1058" style="text-decoration:;">Sharing</tspan></tspan></text></g></g><g id="SvgjsG1059"><path id="SvgjsPath1060" d="M419 259L453.5 259L453.5 259L485.4 259 " stroke="#323232" stroke-width="2" fill="none" marker-end="url(#SvgjsMarker1061)"></path></g><g id="SvgjsG1063"><path id="SvgjsPath1064" d="M294 133.5L294 79L476.9 79 " stroke="#323232" stroke-width="2" fill="none" marker-end="url(#SvgjsMarker1065)"></path></g><g id="SvgjsG1067"><path id="SvgjsPath1068" d="M166.39999999999998 259L134.5 259L134.5 259L103.60000000000002 259 " stroke="#323232" stroke-width="2" fill="none" marker-start="url(#SvgjsMarker1069)" marker-end="url(#SvgjsMarker1071)"></path></g><g id="SvgjsG1073"><path id="SvgjsPath1074" d="M294 383.5L294 420L476.9 420 " stroke="#323232" stroke-width="2" fill="none" marker-end="url(#SvgjsMarker1075)"></path></g><g id="SvgjsG1077"><path id="SvgjsPath1078" d="M517.5 221L517.5 188.5L517.5 188.5L517.5 156 " stroke="#323232" stroke-width="2" fill="none" marker-end="url(#SvgjsMarker1079)"></path></g><g id="SvgjsG1081" transform="translate(479.5,524)"><path id="SvgjsPath1082" d="M0 0L76 0L76 76L0 76Z " stroke="none" fill="url(#SvgjsPattern1083)" opacity="1"></path><g id="SvgjsG1085"><text id="SvgjsText1086" font-family="微软雅黑" text-anchor="middle" font-size="13px" width="116px" fill="#323232" font-weight="400" align="middle" lineHeight="125%" font-style="" opacity="1" y="80.375" transform="rotate(0)"><tspan id="SvgjsTspan1087" dy="16" x="38"><tspan id="SvgjsTspan1088" style="text-decoration:;">OGSync CLI</tspan></tspan></text></g></g><g id="SvgjsG1089"><path id="SvgjsPath1090" d="M517.5 491.5L517.5 507.75L517.5 507.75L517.5 521.4 " stroke="#323232" stroke-width="2" fill="none" marker-start="url(#SvgjsMarker1091)" marker-end="url(#SvgjsMarker1093)"></path></g><g id="SvgjsG1095" transform="translate(622.5,220.5)"><path id="SvgjsPath1096" d="M0 0L61 0L61 76L0 76Z " stroke="none" fill="url(#SvgjsPattern1097)" opacity="1"></path><g id="SvgjsG1099"><text id="SvgjsText1100" font-family="微软雅黑" text-anchor="middle" font-size="13px" width="101px" fill="#323232" font-weight="400" align="middle" lineHeight="125%" font-style="" opacity="1" y="72.375" transform="rotate(0)"><tspan id="SvgjsTspan1101" dy="16" x="30.5"><tspan id="SvgjsTspan1102" style="text-decoration:;">Synchronization </tspan></tspan><tspan id="SvgjsTspan1103" dy="16" x="30.5"><tspan id="SvgjsTspan1104" style="text-decoration:;">Scheduler</tspan></tspan></text></g></g><g id="SvgjsG1105"><path id="SvgjsPath1106" d="M683.5 258.5L721.25 258.5L721.25 258.5L756.4 258.5 " stroke="#323232" stroke-width="2" fill="none" marker-end="url(#SvgjsMarker1107)"></path></g><g id="SvgjsG1109"><path id="SvgjsPath1110" d="M622.5 258.5L584.75 258.5L584.75 258.5L549.6 258.5 " stroke="#323232" stroke-width="2" fill="none" marker-end="url(#SvgjsMarker1111)"></path></g><g id="SvgjsG1113" transform="translate(666.75,383.5)"><path id="SvgjsPath1114" d="M0 0L50 0L50 50L0 50Z " stroke="none" fill="url(#SvgjsPattern1115)" opacity="1"></path><g id="SvgjsG1117"><text id="SvgjsText1118" font-family="微软雅黑" text-anchor="middle" font-size="13px" width="90px" fill="#323232" font-weight="400" align="middle" lineHeight="125%" font-style="" opacity="1" y="54.375" transform="rotate(0)"></text></g></g><g id="SvgjsG1119" transform="translate(666.75,519.5)"><path id="SvgjsPath1120" d="M0 0L50 0L50 50L0 50Z " stroke="none" fill="url(#SvgjsPattern1121)" opacity="1"></path><g id="SvgjsG1123"><text id="SvgjsText1124" font-family="微软雅黑" text-anchor="middle" font-size="13px" width="90px" fill="#323232" font-weight="400" align="middle" lineHeight="125%" font-style="" opacity="1" y="54.375" transform="rotate(0)"></text></g></g><g id="SvgjsG1125" transform="translate(722.25,388.5)"><path id="SvgjsPath1126" d="M0 0L120 0L120 40L0 40Z " stroke="none" fill="none"></path><g id="SvgjsG1127"><text id="SvgjsText1128" font-family="微软雅黑" text-anchor="middle" font-size="13px" width="120px" fill="#323232" font-weight="400" align="middle" lineHeight="125%" font-style="" opacity="1" y="1.375" transform="rotate(0)"><tspan id="SvgjsTspan1129" dy="16" x="60"><tspan id="SvgjsTspan1130" style="text-decoration:;">Relationship</tspan></tspan><tspan id="SvgjsTspan1131" dy="16" x="60"><tspan id="SvgjsTspan1132" style="text-decoration:;">Analysis</tspan></tspan></text></g></g><g id="SvgjsG1133" transform="translate(666.75,587)"><path id="SvgjsPath1134" d="M0 0L50 0L50 50L0 50Z " stroke="none" fill="url(#SvgjsPattern1135)" opacity="1"></path><g id="SvgjsG1137"><text id="SvgjsText1138" font-family="微软雅黑" text-anchor="middle" font-size="13px" width="90px" fill="#323232" font-weight="400" align="middle" lineHeight="125%" font-style="" opacity="1" y="54.375" transform="rotate(0)"></text></g></g><g id="SvgjsG1139" transform="translate(722.25,519.4999999999999)"><path id="SvgjsPath1140" d="M0 0L120 0L120 40L0 40Z " stroke="none" fill="none"></path><g id="SvgjsG1141"><text id="SvgjsText1142" font-family="微软雅黑" text-anchor="middle" font-size="13px" width="120px" fill="#323232" font-weight="400" align="middle" lineHeight="125%" font-style="" opacity="1" y="1.375" transform="rotate(0)"><tspan id="SvgjsTspan1143" dy="16" x="60"><tspan id="SvgjsTspan1144" style="text-decoration:;">Database </tspan></tspan><tspan id="SvgjsTspan1145" dy="16" x="60"><tspan id="SvgjsTspan1146" style="text-decoration:;">Management</tspan></tspan></text></g></g><g id="SvgjsG1147" transform="translate(666.75,451.5)"><path id="SvgjsPath1148" d="M0 0L50 0L50 50L0 50Z " stroke="none" fill="url(#SvgjsPattern1149)" opacity="1"></path><g id="SvgjsG1151"><text id="SvgjsText1152" font-family="微软雅黑" text-anchor="middle" font-size="13px" width="90px" fill="#323232" font-weight="400" align="middle" lineHeight="125%" font-style="" opacity="1" y="54.375" transform="rotate(0)"></text></g></g><g id="SvgjsG1153" transform="translate(722.25,451.5)"><path id="SvgjsPath1154" d="M0 0L120 0L120 40L0 40Z " stroke="none" fill="none"></path><g id="SvgjsG1155"><text id="SvgjsText1156" font-family="微软雅黑" text-anchor="middle" font-size="13px" width="120px" fill="#323232" font-weight="400" align="middle" lineHeight="125%" font-style="" opacity="1" y="1.375" transform="rotate(0)"><tspan id="SvgjsTspan1157" dy="16" x="60"><tspan id="SvgjsTspan1158" style="text-decoration:;">Genome Data </tspan></tspan><tspan id="SvgjsTspan1159" dy="16" x="60"><tspan id="SvgjsTspan1160" style="text-decoration:;">Search</tspan></tspan></text></g></g><g id="SvgjsG1161" transform="translate(722.25,587)"><path id="SvgjsPath1162" d="M0 0L120 0L120 40L0 40Z " stroke="none" fill="none"></path><g id="SvgjsG1163"><text id="SvgjsText1164" font-family="微软雅黑" text-anchor="middle" font-size="13px" width="120px" fill="#323232" font-weight="400" align="middle" lineHeight="125%" font-style="" opacity="1" y="1.375" transform="rotate(0)"><tspan id="SvgjsTspan1165" dy="16" x="60"><tspan id="SvgjsTspan1166" style="text-decoration:;">Synchronizer </tspan></tspan><tspan id="SvgjsTspan1167" dy="16" x="60"><tspan id="SvgjsTspan1168" style="text-decoration:;">Dashboard</tspan></tspan></text></g></g><g id="SvgjsG1169"><path id="SvgjsPath1170" d="M555.5 562L611.125 562L611.125 408.5L664.15 408.5 " stroke="#323232" stroke-width="2" fill="none" marker-end="url(#SvgjsMarker1171)"></path></g><g id="SvgjsG1173"><path id="SvgjsPath1174" d="M555.5 562L611.125 562L611.125 544.5L664.15 544.5 " stroke="#323232" stroke-width="2" fill="none" marker-end="url(#SvgjsMarker1175)"></path></g><g id="SvgjsG1177"><path id="SvgjsPath1178" d="M555.5 562L611.125 562L611.125 476.5L664.15 476.5 " stroke="#323232" stroke-width="2" fill="none" marker-end="url(#SvgjsMarker1179)"></path></g><g id="SvgjsG1181"><path id="SvgjsPath1182" d="M555.5 562L611.125 562L611.125 612L664.15 612 " stroke="#323232" stroke-width="2" fill="none" marker-end="url(#SvgjsMarker1183)"></path></g><g id="SvgjsG1185" transform="translate(622.5,41.5)"><path id="SvgjsPath1186" d="M0 0L75 0L75 75L0 75Z " stroke="none" fill="url(#SvgjsPattern1187)" opacity="1"></path><g id="SvgjsG1189"><text id="SvgjsText1190" font-family="微软雅黑" text-anchor="middle" font-size="13px" width="115px" fill="#323232" font-weight="400" align="middle" lineHeight="125%" font-style="" opacity="1" y="71.375" transform="rotate(0)"><tspan id="SvgjsTspan1191" dy="16" x="37.5"><tspan id="SvgjsTspan1192" style="text-decoration:;">Database </tspan></tspan><tspan id="SvgjsTspan1193" dy="16" x="37.5"><tspan id="SvgjsTspan1194" style="text-decoration:;">Administrator</tspan></tspan></text></g></g><g id="SvgjsG1195"><path id="SvgjsPath1196" d="M622.5 79L589 79L589 79L558.1 79 " stroke="#323232" stroke-width="2" fill="none" marker-end="url(#SvgjsMarker1197)"></path></g><g id="SvgjsG1199" transform="translate(338,524.5)"><path id="SvgjsPath1200" d="M0 0L75 0L75 75L0 75Z " stroke="none" fill="url(#SvgjsPattern1201)" opacity="1"></path><g id="SvgjsG1203"><text id="SvgjsText1204" font-family="微软雅黑" text-anchor="middle" font-size="13px" width="115px" fill="#323232" font-weight="400" align="middle" lineHeight="125%" font-style="" opacity="1" y="79.375" transform="rotate(0)"><tspan id="SvgjsTspan1205" dy="16" x="37.5"><tspan id="SvgjsTspan1206" style="text-decoration:;">OGSync User</tspan></tspan></text></g></g><g id="SvgjsG1207"><path id="SvgjsPath1208" d="M413 562L446.25 562L446.25 562L476.9 562 " stroke="#323232" stroke-width="2" fill="none" marker-end="url(#SvgjsMarker1209)"></path></g><g id="SvgjsG1211" transform="translate(209.5,211.625)"><path id="SvgjsPath1212" d="M0 0L170 0L170 50.75L0 50.75Z " stroke="none" fill="none"></path><g id="SvgjsG1213"><text id="SvgjsText1214" font-family="微软雅黑" text-anchor="middle" font-size="24px" width="170px" fill="#323232" font-weight="400" align="middle" lineHeight="125%" font-style="" opacity="1" y="4.375" transform="rotate(0)"><tspan id="SvgjsTspan1215" dy="30" x="85"><tspan id="SvgjsTspan1216" style="text-decoration:;">OGSync Stack</tspan></tspan></text></g></g><g id="SvgjsG1217" transform="translate(25.5,399.5)"><path id="SvgjsPath1218" d="M0 0L75 0L75 75L0 75Z " stroke="none" fill="url(#SvgjsPattern1219)" opacity="1"></path><g id="SvgjsG1221"><text id="SvgjsText1222" font-family="微软雅黑" text-anchor="middle" font-size="13px" width="115px" fill="#323232" font-weight="400" align="middle" lineHeight="125%" font-style="" opacity="1" y="79.375" transform="rotate(0)"><tspan id="SvgjsTspan1223" dy="16" x="37.5"><tspan id="SvgjsTspan1224" style="text-decoration:;">Developers</tspan></tspan></text></g></g><g id="SvgjsG1225"><path id="SvgjsPath1226" d="M63 399.5L63 364.75L63 364.75L63 330 " stroke="#323232" stroke-width="2" fill="none" marker-end="url(#SvgjsMarker1227)"></path></g><g id="SvgjsG1229" transform="translate(175.5,412)"><path id="SvgjsPath1230" d="M0 0L50 0L50 50L0 50Z " stroke="none" fill="url(#SvgjsPattern1231)" opacity="1"></path><g id="SvgjsG1233"><text id="SvgjsText1234" font-family="微软雅黑" text-anchor="middle" font-size="13px" width="90px" fill="#323232" font-weight="400" align="middle" lineHeight="125%" font-style="" opacity="1" y="54.375" transform="rotate(0)"><tspan id="SvgjsTspan1235" dy="16" x="25"><tspan id="SvgjsTspan1236" style="text-decoration:;">OGSync API</tspan></tspan></text></g></g><g id="SvgjsG1237"><path id="SvgjsPath1238" d="M228.10000000000002 437L352.5 437L352.5 437L476.9 437 " stroke="#323232" stroke-width="2" fill="none" marker-start="url(#SvgjsMarker1239)" marker-end="url(#SvgjsMarker1241)"></path><rect id="SvgjsRect1243" width="34" height="16" x="335.5" y="429" fill="#ffffff"></rect><text id="SvgjsText1244" font-family="微软雅黑" text-anchor="middle" font-size="13px" width="34px" fill="#323232" font-weight="400" align="top" lineHeight="16px" font-style="" opacity="1" y="426.375" transform="rotate(0)"><tspan id="SvgjsTspan1245" dy="16" x="352.5"><tspan id="SvgjsTspan1246" style="text-decoration:;">JSON</tspan></tspan></text></g><g id="SvgjsG1247"><path id="SvgjsPath1248" d="M172.89999999999998 437L138 437L138 437L103.10000000000002 437 " stroke="#323232" stroke-width="2" fill="none" marker-start="url(#SvgjsMarker1249)" marker-end="url(#SvgjsMarker1251)"></path></g><g id="SvgjsG1253" transform="translate(25,551.5)"><path id="SvgjsPath1254" d="M0 0L76 0L76 57L0 57Z " stroke="none" fill="url(#SvgjsPattern1255)" opacity="1"></path><g id="SvgjsG1257"><text id="SvgjsText1258" font-family="微软雅黑" text-anchor="middle" font-size="13px" width="116px" fill="#323232" font-weight="400" align="middle" lineHeight="125%" font-style="" opacity="1" y="61.375" transform="rotate(0)"><tspan id="SvgjsTspan1259" dy="16" x="38"><tspan id="SvgjsTspan1260" style="text-decoration:;">New Application</tspan></tspan></text></g></g><g id="SvgjsG1261"><path id="SvgjsPath1262" d="M200.5 501.5L199.5 501.5L199.5 570L103.10000000000002 570 " stroke="#323232" stroke-width="2" fill="none" marker-end="url(#SvgjsMarker1263)"></path></g><g id="SvgjsG1265"><path id="SvgjsPath1266" d="M63 496.5L63 524L63 524L63 548.9 " stroke="#323232" stroke-width="2" fill="none" marker-end="url(#SvgjsMarker1267)"></path></g><g id="SvgjsG1269"><path id="SvgjsPath1270" d="M338.4544232590366 589.4790554669992L219.4772116295183 589.4790554669992L219.4772116295183 589.4790554669992L103.10000000000002 589.4790554669992 " stroke="#323232" stroke-width="2" fill="none" marker-end="url(#SvgjsMarker1271)"></path></g><g id="SvgjsG1273" transform="translate(25,67)"><path id="SvgjsPath1274" d="M0 0L76 0L76 24L0 24Z " stroke="none" fill="url(#SvgjsPattern1275)" opacity="1"></path><g id="SvgjsG1277"><text id="SvgjsText1278" font-family="微软雅黑" text-anchor="middle" font-size="13px" width="116px" fill="#323232" font-weight="400" align="middle" lineHeight="125%" font-style="" opacity="1" y="28.375" transform="rotate(0)"><tspan id="SvgjsTspan1279" dy="16" x="38"><tspan id="SvgjsTspan1280" style="text-decoration:;">Image Repository</tspan></tspan></text></g></g><g id="SvgjsG1281" transform="translate(40,25)"><path id="SvgjsPath1282" d="M0 0L50 0L50 50L0 50Z " stroke="none" fill="url(#SvgjsPattern1283)" opacity="1"></path><g id="SvgjsG1285"><text id="SvgjsText1286" font-family="微软雅黑" text-anchor="middle" font-size="13px" width="90px" fill="#323232" font-weight="400" align="middle" lineHeight="125%" font-style="" opacity="1" y="54.375" transform="rotate(0)"></text></g></g><g id="SvgjsG1287"><path id="SvgjsPath1288" d="M103.60000000000002 79L265.5 79L265.5 131.39999999999998 " stroke="#323232" stroke-width="2" fill="none" marker-start="url(#SvgjsMarker1289)" marker-end="url(#SvgjsMarker1291)"></path></g><g id="SvgjsG1293" transform="translate(479.5,401)"><path id="SvgjsPath1294" d="M0 0L76 0L76 68L0 68Z " stroke="none" fill="url(#SvgjsPattern1295)" opacity="1"></path><g id="SvgjsG1297"><text id="SvgjsText1298" font-family="微软雅黑" text-anchor="middle" font-size="13px" width="116px" fill="#323232" font-weight="400" align="middle" lineHeight="125%" font-style="" opacity="1" y="72.375" transform="rotate(0)"><tspan id="SvgjsTspan1299" dy="16" x="38"><tspan id="SvgjsTspan1300" style="text-decoration:;">OGSync Client</tspan></tspan></text></g></g><g id="SvgjsG1301"><path id="SvgjsPath1302" d="M517.5 398.4L517.5 364L517.5 364L517.5 327 " stroke="#323232" stroke-width="2" fill="none" marker-start="url(#SvgjsMarker1303)" marker-end="url(#SvgjsMarker1305)"></path></g></svg>